<svg width="12" height="8" viewBox="0 0 12 8" fill="none" xmlns="http://www.w3.org/2000/svg">
<path d="M11 6.83006C10.8126 7.01631 10.5592 7.12085 10.295 7.12085C10.0308 7.12085 9.77737 7.01631 9.59001 6.83006L6.00001 3.29006L2.46001 6.83006C2.27265 7.01631 2.0192 7.12085 1.75501 7.12085C1.49082 7.12085 1.23737 7.01631 1.05001 6.83006C0.956281 6.73709 0.881887 6.62649 0.831118 6.50463C0.780349 6.38277 0.754211 6.25207 0.754211 6.12006C0.754211 5.98805 0.780349 5.85734 0.831118 5.73548C0.881887 5.61362 0.956281 5.50302 1.05001 5.41006L5.29001 1.17006C5.38297 1.07633 5.49357 1.00194 5.61543 0.951166C5.73729 0.900397 5.868 0.874259 6.00001 0.874259C6.13202 0.874259 6.26273 0.900397 6.38459 0.951166C6.50645 1.00194 6.61705 1.07633 6.71001 1.17006L11 5.41006C11.0937 5.50302 11.1681 5.61362 11.2189 5.73548C11.2697 5.85734 11.2958 5.98805 11.2958 6.12006C11.2958 6.25207 11.2697 6.38277 11.2189 6.50463C11.1681 6.62649 11.0937 6.73709 11 6.83006Z" fill="#272727"/>
</svg>
