<svg width="10" height="10" viewBox="0 0 10 10" fill="none" xmlns="http://www.w3.org/2000/svg">
<path d="M4.70415 6.37075C4.68623 6.39055 4.66953 6.41142 4.65415 6.43325C4.63838 6.45648 4.62577 6.4817 4.61665 6.50825C4.60463 6.53187 4.59621 6.55715 4.59165 6.58325C4.5896 6.61099 4.5896 6.63885 4.59165 6.66659C4.59024 6.72124 4.60166 6.77547 4.62498 6.82492C4.64369 6.87663 4.67355 6.92358 4.71243 6.96247C4.75132 7.00135 4.79827 7.03121 4.84998 7.04992C4.89986 7.07196 4.95379 7.08335 5.00831 7.08335C5.06284 7.08335 5.11677 7.07196 5.16665 7.04992C5.21835 7.03121 5.26531 7.00135 5.3042 6.96247C5.34308 6.92358 5.37293 6.87663 5.39165 6.82492C5.41015 6.77426 5.41864 6.72048 5.41665 6.66659C5.41697 6.61175 5.40645 6.55739 5.38572 6.50662C5.36498 6.45586 5.33443 6.40969 5.29581 6.37075C5.25708 6.3317 5.211 6.3007 5.16022 6.27955C5.10945 6.25839 5.05499 6.2475 4.99998 6.2475C4.94498 6.2475 4.89052 6.25839 4.83974 6.27955C4.78897 6.3007 4.74288 6.3317 4.70415 6.37075ZM4.99998 0.833252C4.17589 0.833252 3.37031 1.07762 2.68511 1.53546C1.9999 1.9933 1.46585 2.64405 1.15048 3.4054C0.835118 4.16676 0.752604 5.00454 0.913376 5.8128C1.07415 6.62105 1.47098 7.36348 2.0537 7.9462C2.63642 8.52892 3.37885 8.92575 4.18711 9.08652C4.99536 9.2473 5.83314 9.16478 6.5945 8.84942C7.35585 8.53405 8.0066 8 8.46444 7.3148C8.92228 6.62959 9.16665 5.82401 9.16665 4.99992C9.16665 4.45274 9.05887 3.91093 8.84948 3.4054C8.64008 2.89988 8.33317 2.44055 7.94626 2.05364C7.55935 1.66673 7.10002 1.35982 6.5945 1.15042C6.08897 0.941026 5.54716 0.833252 4.99998 0.833252ZM4.99998 8.33325C4.34071 8.33325 3.69624 8.13776 3.14808 7.77148C2.59992 7.40521 2.17268 6.88462 1.92038 6.27553C1.66809 5.66644 1.60208 4.99622 1.7307 4.34962C1.85931 3.70301 2.17678 3.10907 2.64296 2.6429C3.10913 2.17672 3.70308 1.85925 4.34968 1.73063C4.99628 1.60202 5.66651 1.66803 6.27559 1.92032C6.88468 2.17261 7.40527 2.59985 7.77155 3.14802C8.13782 3.69618 8.33331 4.34065 8.33331 4.99992C8.33331 5.88397 7.98212 6.73182 7.357 7.35694C6.73188 7.98206 5.88404 8.33325 4.99998 8.33325ZM4.99998 2.91659C4.78042 2.91644 4.5647 2.97414 4.37453 3.08385C4.18435 3.19357 4.02643 3.35144 3.91665 3.54159C3.8865 3.58901 3.86626 3.64204 3.85714 3.69749C3.84802 3.75294 3.85021 3.80966 3.86358 3.86425C3.87695 3.91883 3.90122 3.97014 3.93493 4.0151C3.96865 4.06006 4.01111 4.09773 4.05976 4.12585C4.10841 4.15398 4.16225 4.17197 4.21804 4.17874C4.27382 4.18552 4.3304 4.18094 4.38437 4.16528C4.43834 4.14963 4.48859 4.12321 4.53208 4.08764C4.57558 4.05206 4.61143 4.00805 4.63748 3.95825C4.67419 3.89467 4.72705 3.84191 4.79071 3.80533C4.85437 3.76874 4.92656 3.74963 4.99998 3.74992C5.11049 3.74992 5.21647 3.79382 5.29461 3.87196C5.37275 3.9501 5.41665 4.05608 5.41665 4.16659C5.41665 4.27709 5.37275 4.38307 5.29461 4.46121C5.21647 4.53935 5.11049 4.58325 4.99998 4.58325C4.88947 4.58325 4.78349 4.62715 4.70535 4.70529C4.62721 4.78343 4.58331 4.88941 4.58331 4.99992V5.41659C4.58331 5.52709 4.62721 5.63307 4.70535 5.71121C4.78349 5.78935 4.88947 5.83325 4.99998 5.83325C5.11049 5.83325 5.21647 5.78935 5.29461 5.71121C5.37275 5.63307 5.41665 5.52709 5.41665 5.41659V5.34159C5.69222 5.24159 5.92388 5.04793 6.07114 4.79445C6.21839 4.54096 6.27187 4.24379 6.22223 3.95487C6.17259 3.66596 6.02298 3.40368 5.79956 3.21388C5.57614 3.02409 5.29312 2.91886 4.99998 2.91659Z" fill="#272727" fill-opacity="0.6"/>
</svg>
